<?xml version="1.0" encoding="windows-1252"?>
<!-- Generator: Adobe Illustrator 19.0.0, SVG Export Plug-In . SVG Version: 6.00 Build 0)  -->
<svg version="1.1" id="Capa_1" xmlns="http://www.w3.org/2000/svg" xmlns:xlink="http://www.w3.org/1999/xlink" x="0px" y="0px" viewBox="0 0 512 512" style="enable-background:new 0 0 512 512;" xml:space="preserve">
<circle style="fill:#005ECE;" cx="256" cy="256" r="256"/>
<path style="fill:#00479B;" d="M510.385,285.134l-156.41-156.41l-0.494,0.027c-9.253-9.016-22.318-16.6-37.937-22.024  c-0.757-0.263-1.519-0.52-2.287-0.772c-6.915-2.273-14.303-4.127-22.058-5.506c-0.861-0.154-1.727-0.301-2.599-0.442  c-0.87-0.141-1.746-0.277-2.626-0.406c-2.638-0.388-5.314-0.721-8.025-0.998c-0.904-0.092-1.811-0.178-2.721-0.257  c-2.734-0.238-5.5-0.42-8.294-0.541c-0.932-0.04-1.867-0.075-2.805-0.101c-1.877-0.055-3.765-0.081-5.664-0.081  c-7.6,0-15.019,0.44-22.185,1.278c-1.792,0.209-3.567,0.444-5.326,0.702c-0.879,0.129-1.754,0.265-2.626,0.406  c-1.741,0.283-3.465,0.589-5.17,0.919c-2.558,0.494-5.073,1.042-7.542,1.638c-5.762,1.392-11.273,3.058-16.484,4.966  c-1.489,0.545-2.953,1.111-4.392,1.695c-7.194,2.923-13.746,6.328-19.513,10.132c-0.577,0.381-1.145,0.765-1.706,1.153  c-11.778,8.155-20.028,18.035-23.418,28.878c-0.161,0.516-0.312,1.035-0.451,1.555c-0.696,2.603-1.113,5.258-1.232,7.956  c-0.023,0.54-0.036,1.081-0.036,1.624v11.274c-13.886,9.409-23.037,21.172-25.333,34.098c-0.376,2.115-0.568,4.261-0.568,6.431  v35.545c0,17.713,12.818,33.714,33.437,45.146c-2.578,3.764-4.542,7.703-5.817,11.779c-0.161,0.516-0.312,1.035-0.451,1.555  c-0.696,2.603-1.113,5.258-1.232,7.956c-0.023,0.54-0.036,1.081-0.036,1.624v35.545c0,11.258,5.181,21.825,14.249,30.967  l-0.08,0.444L289.49,509.827C405.555,494.681,497.166,401.795,510.385,285.134z"/>
<path style="fill:#FFA733;" d="M258.418,253.028c-60.796,0-110.081,28.163-110.081,62.904v35.545  c0,34.74,49.284,62.904,110.081,62.904s110.081-28.163,110.081-62.904v-35.545C368.499,281.191,319.213,253.028,258.418,253.028z"/>
<path style="fill:#FF9811;" d="M258.418,253.028v161.351c60.796,0,110.081-28.163,110.081-62.904v-35.545  C368.499,281.191,319.213,253.028,258.418,253.028z"/>
<ellipse style="fill:#FFDA44;" cx="258.415" cy="315.937" rx="110.08" ry="62.909"/>
<path style="fill:#FFCD00;" d="M258.418,253.028v125.807c60.796,0,110.081-28.162,110.081-62.904S319.213,253.028,258.418,253.028z"/>
<ellipse style="fill:#FFFFFF;" cx="258.415" cy="311.786" rx="82.566" ry="43.026"/>
<path style="fill:#E0E0E2;" d="M258.418,268.754v86.053c45.597,0,82.561-19.263,82.561-43.026  C340.978,288.018,304.014,268.754,258.418,268.754z"/>
<path style="fill:#FFA733;" d="M271.368,201.226c-60.796,0-110.081,28.163-110.081,62.904v35.545  c0,34.74,49.284,62.904,110.081,62.904s110.081-28.163,110.081-62.904V264.13C381.449,229.388,332.163,201.226,271.368,201.226z"/>
<path style="fill:#FF9811;" d="M271.368,201.226v161.351c60.796,0,110.081-28.163,110.081-62.904v-35.545  C381.449,229.388,332.163,201.226,271.368,201.226z"/>
<ellipse style="fill:#FFDA44;" cx="271.371" cy="264.125" rx="110.08" ry="62.909"/>
<path style="fill:#FFCD00;" d="M271.368,201.226v125.807c60.796,0,110.081-28.162,110.081-62.904S332.164,201.226,271.368,201.226z"/>
<ellipse style="fill:#FFFFFF;" cx="271.371" cy="259.974" rx="82.566" ry="43.026"/>
<path style="fill:#E0E0E2;" d="M271.368,216.951v86.053c45.597,0,82.561-19.263,82.561-43.026  C353.929,236.215,316.965,216.951,271.368,216.951z"/>
<path style="fill:#FFA733;" d="M232.516,149.423c-60.796,0-110.081,28.163-110.081,62.904v35.545  c0,34.74,49.284,62.904,110.081,62.904s110.081-28.163,110.081-62.904v-35.545C342.597,177.586,293.311,149.423,232.516,149.423z"/>
<path style="fill:#FF9811;" d="M232.516,149.423v161.351c60.796,0,110.081-28.163,110.081-62.904v-35.545  C342.597,177.586,293.311,149.423,232.516,149.423z"/>
<ellipse style="fill:#FFDA44;" cx="232.515" cy="212.324" rx="110.08" ry="62.909"/>
<path style="fill:#FFCD00;" d="M232.516,149.423V275.23c60.796,0,110.081-28.162,110.081-62.904S293.311,149.423,232.516,149.423z"/>
<ellipse style="fill:#FFFFFF;" cx="232.515" cy="208.173" rx="82.566" ry="43.026"/>
<path style="fill:#E0E0E2;" d="M232.516,165.149v86.053c45.597,0,82.561-19.263,82.561-43.026  C315.077,184.412,278.113,165.149,232.516,165.149z"/>
<path style="fill:#FFA733;" d="M258.418,97.621c-60.796,0-110.081,28.163-110.081,62.904v35.545  c0,34.74,49.284,62.904,110.081,62.904s110.081-28.163,110.081-62.904v-35.546C368.499,125.783,319.213,97.621,258.418,97.621z"/>
<path style="fill:#FF9811;" d="M258.418,97.621v161.351c60.796,0,110.081-28.163,110.081-62.904v-35.545  C368.499,125.783,319.213,97.621,258.418,97.621z"/>
<ellipse style="fill:#FFDA44;" cx="258.415" cy="160.523" rx="110.08" ry="62.909"/>
<path style="fill:#FFCD00;" d="M258.418,97.621v125.807c60.796,0,110.081-28.162,110.081-62.904S319.213,97.621,258.418,97.621z"/>
<ellipse style="fill:#FFFFFF;" cx="258.415" cy="156.371" rx="82.566" ry="43.026"/>
<path style="fill:#E0E0E2;" d="M258.418,113.346v86.053c45.597,0,82.561-19.263,82.561-43.026  C340.978,132.609,304.014,113.346,258.418,113.346z"/>
<g>
</g>
<g>
</g>
<g>
</g>
<g>
</g>
<g>
</g>
<g>
</g>
<g>
</g>
<g>
</g>
<g>
</g>
<g>
</g>
<g>
</g>
<g>
</g>
<g>
</g>
<g>
</g>
<g>
</g>
</svg>