<?xml version="1.0" encoding="utf-8"?>
<!-- Generator: Adobe Illustrator 19.0.0, SVG Export Plug-In . SVG Version: 6.00 Build 0)  -->
<svg version="1.0" id="Layer_1" xmlns="http://www.w3.org/2000/svg" xmlns:xlink="http://www.w3.org/1999/xlink" x="0px" y="0px"
	 viewBox="0 0 1934.3 229.7" style="enable-background:new 0 0 1934.3 229.7;" xml:space="preserve">
<style type="text/css">
	.st0{display:none;fill:#4F5B48;}
	.st1{fill:#779060;}
	.st2{fill:#FFFFFF;}
	.st3{fill:#4F5B48;}
	.st4{fill:#414042;}
</style>
<path id="XMLID_39_" class="st0" d="M532.3-1488.7l97.5-124.8c-39.6-59.5-111.4-94-186.7-82.4c-103.5,15.9-174.5,112.7-158.6,216.2
	s112.7,174.5,216.2,158.6c78.2-12,137.8-70.2,155.5-142.6L532.3-1488.7z"/>
<g id="XMLID_184_">
	<g id="XMLID_60_">
		<path id="XMLID_61_" d="M366.7,82.5v106.4H352V82.5h-34V68.1h82.6v14.5H366.7z"/>
		<path id="XMLID_64_" d="M433,103.7c6,0,11.7,1.1,17,3.4c5.3,2.3,10,5.4,13.9,9.3c3.9,3.9,7,8.5,9.3,13.8
			c2.3,5.3,3.4,10.9,3.4,16.9v41.6h-14.5v-9.3c-3.9,3.4-8.3,6.1-13.2,8.1c-4.9,1.9-10.2,2.9-15.9,2.9c-6,0-11.6-1.1-16.8-3.4
			c-5.2-2.3-9.8-5.4-13.7-9.2c-3.9-3.9-7-8.5-9.3-13.7c-2.3-5.3-3.4-10.9-3.4-16.9s1.1-11.6,3.4-16.9c2.3-5.3,5.4-9.9,9.3-13.8
			c3.9-3.9,8.5-7,13.7-9.3C421.4,104.8,427,103.7,433,103.7z M433,118c-4,0-7.8,0.7-11.3,2.2c-3.6,1.5-6.6,3.6-9.2,6.2
			c-2.6,2.7-4.7,5.8-6.2,9.3c-1.6,3.6-2.3,7.3-2.3,11.3s0.8,7.8,2.3,11.3c1.6,3.6,3.6,6.6,6.2,9.2c2.6,2.6,5.7,4.7,9.2,6.2
			c3.6,1.6,7.3,2.3,11.3,2.3c4.1,0,7.9-0.8,11.5-2.3c3.6-1.6,6.6-3.6,9.2-6.2c2.6-2.6,4.7-5.7,6.2-9.2c1.5-3.6,2.2-7.3,2.2-11.3
			s-0.8-7.8-2.2-11.3c-1.5-3.6-3.6-6.7-6.2-9.3c-2.6-2.7-5.7-4.7-9.2-6.2C440.9,118.8,437.1,118,433,118z"/>
		<path id="XMLID_68_" d="M536.5,103.7c5.7,0,11,1,15.9,3c4.9,2,9.4,4.7,13.2,8.2v-48h14.2v80.3c0,6-1.1,11.6-3.4,16.9
			c-2.3,5.3-5.4,9.9-9.2,13.7c-3.9,3.9-8.5,7-13.7,9.2c-5.3,2.3-10.9,3.4-16.9,3.4s-11.6-1.1-16.8-3.4c-5.2-2.3-9.8-5.4-13.7-9.2
			c-3.9-3.9-7-8.5-9.3-13.7c-2.3-5.3-3.4-10.9-3.4-16.9s1.1-11.6,3.4-16.9c2.3-5.3,5.4-9.9,9.3-13.8c3.9-3.9,8.5-7,13.7-9.3
			C524.9,104.8,530.5,103.7,536.5,103.7z M536.5,118c-4,0-7.8,0.7-11.3,2.2c-3.6,1.5-6.6,3.6-9.2,6.2c-2.6,2.7-4.7,5.8-6.2,9.3
			c-1.6,3.6-2.3,7.3-2.3,11.3s0.8,7.8,2.3,11.3c1.6,3.6,3.6,6.6,6.2,9.2c2.6,2.6,5.7,4.7,9.2,6.2c3.6,1.6,7.3,2.3,11.3,2.3
			s7.8-0.8,11.3-2.3c3.6-1.6,6.7-3.6,9.3-6.2c2.7-2.6,4.7-5.7,6.2-9.2c1.5-3.6,2.2-7.3,2.2-11.3s-0.8-7.8-2.2-11.3
			c-1.5-3.6-3.6-6.7-6.2-9.3c-2.7-2.7-5.8-4.7-9.3-6.2C544.3,118.8,540.5,118,536.5,118z"/>
		<path id="XMLID_71_" d="M639.1,104.2c6,0,11.6,1.1,16.9,3.4c5.3,2.3,9.9,5.4,13.8,9.2c3.9,3.9,7,8.5,9.3,13.8
			c2.3,5.3,3.4,11,3.4,17s-1.1,11.6-3.4,16.8c-2.3,5.2-5.4,9.8-9.3,13.7c-3.9,3.9-8.5,7-13.8,9.3c-5.3,2.3-10.9,3.4-16.9,3.4
			c-5.7,0-11-1-15.9-2.9c-4.9-1.9-9.4-4.7-13.2-8.2v48h-14.3v-80.1c0-6,1.1-11.7,3.4-17c2.3-5.3,5.4-9.9,9.3-13.8
			c3.9-3.9,8.5-7,13.8-9.2C627.5,105.3,633.1,104.2,639.1,104.2z M639.1,118.5c-4,0-7.8,0.8-11.3,2.2c-3.6,1.5-6.7,3.6-9.3,6.2
			s-4.7,5.8-6.2,9.3c-1.5,3.6-2.2,7.3-2.2,11.3s0.7,7.8,2.2,11.3c1.5,3.6,3.6,6.6,6.2,9.2c2.7,2.6,5.8,4.7,9.3,6.2
			c3.6,1.6,7.3,2.3,11.3,2.3s7.8-0.8,11.3-2.3c3.6-1.6,6.7-3.6,9.3-6.2c2.7-2.6,4.7-5.7,6.2-9.2c1.5-3.6,2.2-7.3,2.2-11.3
			s-0.8-7.8-2.2-11.3c-1.5-3.6-3.6-6.7-6.2-9.3s-5.8-4.7-9.3-6.2C646.9,119.3,643.1,118.5,639.1,118.5z"/>
		<path id="XMLID_76_" d="M738.2,103.9c6,0,11.6,1.1,16.9,3.4c5.3,2.3,9.9,5.4,13.8,9.2c3.9,3.9,7,8.5,9.3,13.8
			c2.3,5.3,3.4,11,3.4,17s-1.1,11.6-3.4,16.9c-2.3,5.3-5.4,9.9-9.3,13.7c-3.9,3.9-8.5,7-13.8,9.2c-5.3,2.3-10.9,3.4-16.9,3.4
			s-11.6-1.1-16.8-3.4c-5.2-2.3-9.8-5.4-13.7-9.2c-3.9-3.9-7-8.5-9.3-13.7c-2.3-5.3-3.4-10.9-3.4-16.9s1.1-11.7,3.4-17
			c2.3-5.3,5.4-9.9,9.3-13.8c3.9-3.9,8.5-7,13.7-9.2C726.6,105,732.2,103.9,738.2,103.9z M738.2,118.2c-4,0-7.8,0.8-11.3,2.2
			c-3.6,1.5-6.7,3.6-9.3,6.2s-4.7,5.8-6.2,9.3c-1.5,3.6-2.2,7.3-2.2,11.3s0.7,7.8,2.2,11.3c1.5,3.6,3.6,6.6,6.2,9.2
			c2.7,2.6,5.8,4.7,9.3,6.2c3.6,1.6,7.3,2.3,11.3,2.3s7.8-0.8,11.3-2.3c3.6-1.6,6.7-3.6,9.3-6.2c2.7-2.6,4.7-5.7,6.2-9.2
			c1.5-3.6,2.2-7.3,2.2-11.3s-0.8-7.8-2.2-11.3c-1.5-3.6-3.6-6.7-6.2-9.3s-5.8-4.7-9.3-6.2C745.9,118.9,742.2,118.2,738.2,118.2z"/>
		<path id="XMLID_79_" d="M796.4,67.1h14.2v100.2c0,2.6,1.2,4.7,3.6,6.5c2.4,1.8,5.2,2.7,8.6,2.7v14.2c-3.7,0-7.1-0.6-10.2-1.8
			c-3.2-1.2-5.9-2.9-8.3-5c-2.4-2.1-4.3-4.6-5.7-7.4c-1.4-2.8-2.1-5.9-2.1-9.1V67.1z"/>
		<path id="XMLID_81_" d="M870,190.9c-6,0-11.6-1.1-16.9-3.4c-5.3-2.3-9.9-5.4-13.8-9.3c-3.9-3.9-7.1-8.5-9.3-13.7
			c-2.3-5.2-3.4-10.8-3.4-16.8s1.1-11.7,3.4-17c2.3-5.3,5.4-9.9,9.3-13.8c3.9-3.9,8.5-7,13.8-9.2c5.3-2.3,10.9-3.4,16.9-3.4
			s11.6,1.1,16.9,3.4c5.3,2.3,9.8,5.4,13.7,9.2c3.9,3.9,7,8.5,9.2,13.8c2.3,5.3,3.4,11,3.4,17c0,0.8,0,1.6,0,2.5
			c0,0.9-0.1,2.4-0.3,4.5h-71.1c0.8,3.2,2.1,6.2,3.8,8.8c1.8,2.7,3.9,5,6.3,7c2.4,2,5.2,3.6,8.2,4.7c3.1,1.1,6.3,1.7,9.7,1.7
			c2.7,0,5.3-0.7,8-2.1c2.7-1.4,5.2-3.2,7.7-5.6l10,10c-3.7,3.6-7.7,6.4-12.1,8.6C879.2,189.9,874.7,190.9,870,190.9z M898.2,140.5
			c-0.9-3.1-2.2-6-3.9-8.7c-1.7-2.7-3.8-5-6.2-7c-2.4-1.9-5.2-3.5-8.2-4.6c-3.1-1.1-6.3-1.7-9.7-1.7c-3.4,0-6.7,0.6-9.7,1.7
			c-3.1,1.1-5.8,2.6-8.2,4.6c-2.4,1.9-4.6,4.3-6.3,7c-1.8,2.7-3.1,5.6-3.8,8.7H898.2z"/>
		<path id="XMLID_84_" d="M964.8,67.4h75.3V82h-60.8v38.8h53.1v14.7h-53.1v53.4h-14.5V67.4z"/>
		<path id="XMLID_86_" d="M1053.5,67.1h14.3v19.3h-14.3V67.1z M1053.5,105.7h14.3v83.3h-14.3V105.7z"/>
		<path id="XMLID_89_" d="M1125.3,103.9c6,0,11.6,1.1,16.9,3.4c5.3,2.3,9.9,5.4,13.8,9.2c3.9,3.9,7,8.5,9.3,13.8
			c2.3,5.3,3.4,11,3.4,17v41.6h-14.3v-41.6c0-4-0.7-7.8-2.2-11.3c-1.5-3.6-3.6-6.7-6.2-9.3c-2.6-2.7-5.7-4.7-9.2-6.2
			c-3.6-1.5-7.4-2.2-11.5-2.2c-4,0-7.8,0.8-11.3,2.2c-3.6,1.5-6.6,3.6-9.2,6.2c-2.6,2.7-4.7,5.8-6.2,9.3c-1.6,3.6-2.3,7.3-2.3,11.3
			v41.6H1082v-41.6c0-6,1.1-11.7,3.4-17c2.3-5.3,5.4-9.9,9.3-13.8c3.9-3.9,8.5-7,13.7-9.2C1113.7,105,1119.3,103.9,1125.3,103.9z"/>
		<path id="XMLID_91_" d="M1226.4,103.7c6,0,11.7,1.1,17,3.4c5.3,2.3,10,5.4,13.9,9.3c3.9,3.9,7,8.5,9.3,13.8
			c2.3,5.3,3.4,10.9,3.4,16.9v41.6h-14.5v-9.3c-3.9,3.4-8.3,6.1-13.2,8.1c-4.9,1.9-10.2,2.9-15.9,2.9c-6,0-11.6-1.1-16.8-3.4
			c-5.2-2.3-9.8-5.4-13.7-9.2c-3.9-3.9-7-8.5-9.3-13.7c-2.3-5.3-3.4-10.9-3.4-16.9s1.1-11.6,3.4-16.9c2.3-5.3,5.4-9.9,9.3-13.8
			c3.9-3.9,8.5-7,13.7-9.3C1214.8,104.8,1220.4,103.7,1226.4,103.7z M1226.4,118c-4,0-7.8,0.7-11.3,2.2c-3.6,1.5-6.6,3.6-9.2,6.2
			c-2.6,2.7-4.7,5.8-6.2,9.3c-1.6,3.6-2.3,7.3-2.3,11.3s0.8,7.8,2.3,11.3c1.6,3.6,3.6,6.6,6.2,9.2c2.6,2.6,5.7,4.7,9.2,6.2
			c3.6,1.6,7.3,2.3,11.3,2.3c4.1,0,7.9-0.8,11.5-2.3c3.6-1.6,6.6-3.6,9.2-6.2c2.6-2.6,4.7-5.7,6.2-9.2c1.5-3.6,2.2-7.3,2.2-11.3
			s-0.8-7.8-2.2-11.3c-1.5-3.6-3.6-6.7-6.2-9.3c-2.6-2.7-5.7-4.7-9.2-6.2C1234.3,118.8,1230.5,118,1226.4,118z"/>
		<path id="XMLID_94_" d="M1329.8,103.9c6,0,11.6,1.1,16.9,3.4c5.3,2.3,9.9,5.4,13.8,9.2c3.9,3.9,7,8.5,9.3,13.8
			c2.3,5.3,3.4,11,3.4,17v41.6h-14.3v-41.6c0-4-0.7-7.8-2.2-11.3c-1.5-3.6-3.6-6.7-6.2-9.3c-2.6-2.7-5.7-4.7-9.2-6.2
			c-3.6-1.5-7.4-2.2-11.5-2.2c-4,0-7.8,0.8-11.3,2.2c-3.6,1.5-6.6,3.6-9.2,6.2c-2.6,2.7-4.7,5.8-6.2,9.3c-1.6,3.6-2.3,7.3-2.3,11.3
			v41.6h-14.2v-41.6c0-6,1.1-11.7,3.4-17c2.3-5.3,5.4-9.9,9.3-13.8c3.9-3.9,8.5-7,13.7-9.2C1318.2,105,1323.8,103.9,1329.8,103.9z"
			/>
		<path id="XMLID_96_" d="M1431.8,190.1c-6,0-11.6-1.1-16.8-3.4c-5.2-2.3-9.8-5.4-13.7-9.2c-3.9-3.9-7-8.5-9.3-13.7
			c-2.3-5.3-3.4-10.9-3.4-16.9s1.1-11.6,3.4-16.9c2.3-5.3,5.4-9.9,9.3-13.8c3.9-3.9,8.5-7,13.7-9.3c5.2-2.3,10.8-3.4,16.8-3.4
			c4.7,0,9.2,1.1,13.7,3.2c4.4,2.2,8.5,5.1,12.2,8.7l-10,10c-2.4-2.3-5-4.2-7.7-5.6c-2.7-1.4-5.4-2.1-8.2-2.1c-4,0-7.8,0.7-11.3,2.2
			c-3.6,1.5-6.6,3.6-9.2,6.2c-2.6,2.7-4.7,5.8-6.2,9.3c-1.6,3.6-2.3,7.3-2.3,11.3s0.8,7.8,2.3,11.3c1.6,3.6,3.6,6.6,6.2,9.2
			c2.6,2.6,5.7,4.7,9.2,6.2c3.6,1.6,7.3,2.3,11.3,2.3c2.8,0,5.5-0.7,8.2-2s5.2-3.2,7.7-5.7l10,10c-3.7,3.7-7.7,6.6-12.2,8.7
			C1441,189.1,1436.5,190.1,1431.8,190.1z"/>
		<path id="XMLID_98_" d="M1508.1,190.9c-6,0-11.6-1.1-16.9-3.4c-5.3-2.3-9.9-5.4-13.8-9.3c-3.9-3.9-7.1-8.5-9.3-13.7
			c-2.3-5.2-3.4-10.8-3.4-16.8s1.1-11.7,3.4-17c2.3-5.3,5.4-9.9,9.3-13.8c3.9-3.9,8.5-7,13.8-9.2c5.3-2.3,10.9-3.4,16.9-3.4
			s11.6,1.1,16.9,3.4c5.3,2.3,9.8,5.4,13.7,9.2c3.9,3.9,7,8.5,9.2,13.8c2.3,5.3,3.4,11,3.4,17c0,0.8,0,1.6,0,2.5
			c0,0.9-0.1,2.4-0.3,4.5H1480c0.8,3.2,2.1,6.2,3.8,8.8c1.8,2.7,3.9,5,6.3,7c2.4,2,5.2,3.6,8.2,4.7c3.1,1.1,6.3,1.7,9.7,1.7
			c2.7,0,5.3-0.7,8-2.1c2.7-1.4,5.2-3.2,7.7-5.6l10,10c-3.7,3.6-7.7,6.4-12.1,8.6C1517.3,189.9,1512.8,190.9,1508.1,190.9z
			 M1536.2,140.5c-0.9-3.1-2.2-6-3.9-8.7c-1.7-2.7-3.8-5-6.2-7c-2.4-1.9-5.2-3.5-8.2-4.6c-3.1-1.1-6.3-1.7-9.7-1.7
			c-3.4,0-6.7,0.6-9.7,1.7c-3.1,1.1-5.8,2.6-8.2,4.6c-2.4,1.9-4.6,4.3-6.3,7c-1.8,2.7-3.1,5.6-3.8,8.7H1536.2z"/>
		<path id="XMLID_101_" d="M1603,189.1v-0.5V67.2h40.3c6,0,11.7,1.1,17,3.4c5.3,2.3,10,5.4,13.9,9.4c3.9,4,7,8.6,9.3,13.9
			c2.3,5.3,3.4,10.9,3.4,16.9v34.8c0,6-1.1,11.6-3.4,16.9c-2.3,5.3-5.4,9.9-9.3,13.8c-3.9,3.9-8.6,7.1-13.9,9.3
			c-5.3,2.3-11,3.4-17,3.4H1603z M1611.7,180.4h31.6c4.8,0,9.3-0.9,13.6-2.7c4.3-1.8,8-4.3,11.1-7.5c3.1-3.2,5.6-6.9,7.4-11.1
			c1.8-4.2,2.7-8.7,2.7-13.5v-34.8c0-4.8-0.9-9.3-2.7-13.6c-1.8-4.3-4.3-8-7.4-11.1c-3.1-3.1-6.8-5.6-11.1-7.4
			c-4.3-1.8-8.8-2.7-13.6-2.7h-31.6V180.4z"/>
		<path id="XMLID_104_" d="M1742.5,103.7c6,0,11.6,1.1,16.9,3.4c5.3,2.3,9.9,5.4,13.8,9.3c3.9,3.9,7,8.6,9.3,13.9
			c2.3,5.3,3.4,11,3.4,17s-1.1,11.6-3.4,16.9c-2.3,5.3-5.4,9.9-9.3,13.8c-3.9,3.9-8.5,7.1-13.8,9.3c-5.3,2.3-10.9,3.4-16.9,3.4
			s-11.6-1.1-16.9-3.4c-5.3-2.3-9.9-5.4-13.8-9.3c-3.9-3.9-7.1-8.5-9.3-13.8c-2.3-5.3-3.4-10.9-3.4-16.9s1.1-11.7,3.4-17
			c2.3-5.3,5.4-10,9.3-13.9c3.9-3.9,8.5-7,13.8-9.3C1730.9,104.8,1736.5,103.7,1742.5,103.7z M1742.5,112.5c-4.9,0-9.4,0.9-13.7,2.7
			c-4.2,1.8-7.9,4.3-11,7.4c-3.1,3.1-5.6,6.8-7.4,11.1c-1.8,4.3-2.7,8.8-2.7,13.6c0,4.8,0.9,9.3,2.7,13.5c1.8,4.2,4.3,7.9,7.4,11.1
			c3.1,3.2,6.8,5.7,11,7.5c4.2,1.8,8.8,2.7,13.7,2.7c4.8,0,9.3-0.9,13.5-2.7c4.2-1.8,7.9-4.3,11.1-7.5c3.2-3.2,5.7-6.9,7.5-11.1
			c1.8-4.2,2.7-8.7,2.7-13.5c0-4.8-0.9-9.3-2.7-13.6c-1.8-4.3-4.3-8-7.5-11.1c-3.2-3.1-6.9-5.6-11.1-7.4
			C1751.8,113.4,1747.3,112.5,1742.5,112.5z"/>
		<path id="XMLID_107_" d="M1839.8,190.3c-6,0-11.6-1.1-16.9-3.4c-5.3-2.3-9.9-5.4-13.8-9.3c-3.9-3.9-7.1-8.5-9.3-13.8
			c-2.3-5.3-3.4-10.9-3.4-16.9s1.1-11.7,3.4-17c2.3-5.3,5.4-10,9.3-13.9c3.9-3.9,8.5-7,13.8-9.3c5.3-2.3,10.9-3.4,16.9-3.4
			c4.5,0,8.8,0.9,12.7,2.6c3.9,1.7,7.4,4.1,10.4,7.1l-6.2,6.2c-2.2-2.2-4.8-3.9-7.7-5.2c-2.9-1.2-6-1.8-9.3-1.8
			c-4.8,0-9.3,0.9-13.5,2.7c-4.2,1.8-7.9,4.3-11.1,7.4c-3.2,3.1-5.7,6.8-7.5,11.1c-1.8,4.3-2.7,8.8-2.7,13.6c0,4.8,0.9,9.3,2.7,13.5
			c1.8,4.2,4.3,7.9,7.5,11.1c3.2,3.2,6.9,5.7,11.1,7.5c4.2,1.8,8.7,2.7,13.5,2.7c3.3,0,6.4-0.6,9.3-1.8c2.9-1.2,5.4-2.9,7.7-5.2
			l6.2,6.2c-3,2.9-6.5,5.2-10.4,6.9C1848.6,189.4,1844.3,190.3,1839.8,190.3z"/>
		<path id="XMLID_110_" d="M1896.7,150.6c-2.9,0-5.6-0.5-8.2-1.6c-2.6-1.1-4.9-2.5-6.8-4.3c-1.9-1.8-3.5-4-4.7-6.5
			c-1.2-2.5-1.8-5.2-1.9-8.1c-0.2-1.6-0.2-3.2,0-5c0.1-2.9,0.7-5.6,1.9-8.1c1.2-2.5,2.7-4.7,4.7-6.5c1.9-1.8,4.2-3.3,6.8-4.3
			c2.6-1.1,5.4-1.6,8.2-1.6h31.3v8.7h-31.3c-3.4,0-6.4,1.2-8.9,3.5c-2.5,2.3-3.9,5.2-4.1,8.7c-0.2,1.4-0.2,2.9,0,4.3
			c0.2,3.4,1.6,6.3,4.1,8.7c2.5,2.3,5.5,3.5,8.9,3.5h12.3h0.2c2.9,0,5.6,0.5,8.2,1.6c2.6,1.1,4.9,2.5,6.8,4.4
			c1.9,1.9,3.5,4.1,4.7,6.6c1.2,2.5,1.8,5.2,1.9,8.1v4.5v0.2v0.3c0,3-0.6,5.8-1.7,8.3c-1.2,2.6-2.7,4.8-4.7,6.7
			c-2,1.9-4.3,3.5-6.9,4.6c-2.6,1.1-5.4,1.7-8.4,1.7h-32.1v-8.7h32.1c3.2,0,6-1,8.5-3.1c2.4-2.1,3.9-4.7,4.5-7.9
			c0-0.3,0-0.7,0.1-1.1c0.1-0.4,0.1-0.7,0.1-1.1v-3.5c-0.1-3.6-1.4-6.6-4-9.2c-2.6-2.6-5.6-3.8-9.2-3.8H1896.7z"/>
	</g>
	<g id="XMLID_17_">
		<g id="XMLID_4_">
			<path id="XMLID_74_" class="st1" d="M170.3,2.3c-3.9,0-7.8,0.2-11.6,0.6l0,0c0,0-76.9,2.3-128.4,80.7c0,0-32.6,44.5-28.4,99.2
				c0.2,2.6,3.5,3.6,5.1,1.5c9.9-13.1,34.9-43.8,55.9-46.7c11.3,48.8,55.1,85.3,107.4,85.3c60.9,0,110.3-49.4,110.3-110.3
				S231.2,2.3,170.3,2.3z"/>
			<g id="XMLID_8_">
				<g id="XMLID_53_">
					<circle id="XMLID_72_" class="st2" cx="170.5" cy="112.6" r="68.9"/>
					<path id="XMLID_55_" class="st3" d="M189.8,61.6c28.1,10.7,42.3,42.2,31.7,70.3c-10.7,28.1-42.2,42.3-70.3,31.7
						c-28.1-10.7-42.3-42.2-31.7-70.3C130.1,65.1,161.7,50.9,189.8,61.6 M194.9,48.1c-35.6-13.5-75.4,4.4-88.8,40s4.4,75.4,40,88.8
						c35.6,13.5,75.4-4.4,88.8-40C248.4,101.4,230.4,61.6,194.9,48.1L194.9,48.1z"/>
				</g>
				<g id="XMLID_46_">
					<circle id="XMLID_200_" class="st4" cx="170.5" cy="112.6" r="49.9"/>
				</g>
				<g id="XMLID_15_">
					<circle id="XMLID_198_" class="st2" cx="156.5" cy="88.2" r="25.5"/>
				</g>
			</g>
		</g>
	</g>
</g>
</svg>
