<?xml version="1.0" encoding="utf-8"?>
<!-- Generator: Adobe Illustrator 19.0.0, SVG Export Plug-In . SVG Version: 6.00 Build 0)  -->
<svg version="1.1" id="Layer_1" xmlns="http://www.w3.org/2000/svg" xmlns:xlink="http://www.w3.org/1999/xlink" x="0px" y="0px"
	 viewBox="0 0 1200 171" style="enable-background:new 0 0 1200 171;" xml:space="preserve">
<style type="text/css">
	.st0{fill:#2D2D2D;}
	.st1{fill:#779060;}
	.st2{fill:#FFFFFF;}
	.st3{fill:#4F5B48;}
	.st4{fill:#414042;}
</style>
<g id="XMLID_17_">
	<g id="XMLID_76_">
		<path id="XMLID_404_" class="st0" d="M281.3,58.1v82.5h-11.4V58.1h-26.3V46.9h64v11.2H281.3z"/>
		<path id="XMLID_387_" class="st0" d="M332.6,74.5c4.6,0,9,0.9,13.2,2.6c4.1,1.8,7.7,4.2,10.8,7.2c3.1,3.1,5.5,6.6,7.2,10.7
			c1.8,4.1,2.6,8.5,2.6,13.1v32.3h-11.2v-7.2c-3,2.7-6.4,4.8-10.3,6.3c-3.8,1.5-7.9,2.3-12.3,2.3c-4.6,0-9-0.9-13-2.6
			c-4-1.8-7.6-4.2-10.7-7.2c-3.1-3-5.5-6.6-7.2-10.7c-1.8-4.1-2.6-8.5-2.6-13.1c0-4.6,0.9-9,2.6-13.1c1.8-4.1,4.2-7.7,7.2-10.7
			c3.1-3.1,6.6-5.5,10.7-7.2C323.6,75.4,328,74.5,332.6,74.5z M332.6,85.6c-3.1,0-6,0.6-8.8,1.7c-2.8,1.2-5.1,2.8-7.2,4.8
			c-2,2.1-3.6,4.5-4.8,7.2c-1.2,2.8-1.8,5.7-1.8,8.8c0,3.1,0.6,6,1.8,8.8c1.2,2.8,2.8,5.1,4.8,7.2c2,2,4.4,3.6,7.2,4.8
			c2.8,1.2,5.7,1.8,8.8,1.8c3.2,0,6.2-0.6,8.9-1.8c2.8-1.2,5.1-2.8,7.2-4.8c2-2,3.6-4.4,4.8-7.2c1.2-2.8,1.7-5.7,1.7-8.8
			c0-3.1-0.6-6-1.7-8.8c-1.2-2.8-2.8-5.2-4.8-7.2c-2-2.1-4.4-3.7-7.2-4.8C338.8,86.2,335.8,85.6,332.6,85.6z"/>
		<path id="XMLID_381_" class="st0" d="M413,74.5c4.4,0,8.5,0.8,12.3,2.3c3.8,1.5,7.3,3.7,10.3,6.3V46h11v62.2c0,4.6-0.9,9-2.6,13.1
			c-1.8,4.1-4.2,7.6-7.2,10.7c-3,3-6.6,5.4-10.7,7.2c-4.1,1.8-8.5,2.6-13.1,2.6c-4.6,0-9-0.9-13-2.6c-4-1.8-7.6-4.2-10.7-7.2
			c-3.1-3-5.5-6.6-7.2-10.7c-1.8-4.1-2.6-8.5-2.6-13.1c0-4.6,0.9-9,2.6-13.1c1.8-4.1,4.2-7.7,7.2-10.7c3.1-3.1,6.6-5.5,10.7-7.2
			C404,75.4,408.3,74.5,413,74.5z M413,85.6c-3.1,0-6,0.6-8.8,1.7c-2.8,1.2-5.1,2.8-7.2,4.8c-2,2.1-3.6,4.5-4.8,7.2
			c-1.2,2.8-1.8,5.7-1.8,8.8c0,3.1,0.6,6,1.8,8.8c1.2,2.8,2.8,5.1,4.8,7.2c2,2,4.4,3.6,7.2,4.8c2.8,1.2,5.7,1.8,8.8,1.8
			c3.1,0,6-0.6,8.8-1.8c2.8-1.2,5.2-2.8,7.2-4.8c2.1-2,3.7-4.4,4.8-7.2c1.2-2.8,1.7-5.7,1.7-8.8c0-3.1-0.6-6-1.7-8.8
			c-1.2-2.8-2.8-5.2-4.8-7.2c-2.1-2.1-4.5-3.7-7.2-4.8C419,86.2,416.1,85.6,413,85.6z"/>
		<path id="XMLID_349_" class="st0" d="M492.5,74.9c4.6,0,9,0.9,13.1,2.6c4.1,1.8,7.7,4.2,10.7,7.2c3.1,3,5.5,6.6,7.2,10.7
			c1.8,4.1,2.6,8.5,2.6,13.2c0,4.6-0.9,9-2.6,13c-1.8,4-4.2,7.6-7.2,10.7c-3.1,3.1-6.6,5.5-10.7,7.2c-4.1,1.8-8.5,2.6-13.1,2.6
			c-4.4,0-8.5-0.8-12.3-2.3c-3.8-1.5-7.3-3.6-10.3-6.4v37.2h-11.1v-62.1c0-4.6,0.9-9,2.6-13.2c1.8-4.1,4.2-7.7,7.2-10.7
			c3.1-3,6.6-5.4,10.7-7.2C483.5,75.8,487.9,74.9,492.5,74.9z M492.5,86c-3.1,0-6,0.6-8.8,1.7c-2.8,1.2-5.2,2.8-7.2,4.8
			c-2.1,2.1-3.7,4.5-4.8,7.2c-1.2,2.8-1.7,5.7-1.7,8.8c0,3.1,0.6,6,1.7,8.8c1.2,2.8,2.8,5.1,4.8,7.2c2.1,2,4.5,3.6,7.2,4.8
			c2.8,1.2,5.7,1.8,8.8,1.8c3.1,0,6-0.6,8.8-1.8c2.8-1.2,5.2-2.8,7.2-4.8c2.1-2,3.7-4.4,4.8-7.2c1.2-2.8,1.7-5.7,1.7-8.8
			c0-3.1-0.6-6-1.7-8.8c-1.2-2.8-2.8-5.2-4.8-7.2c-2.1-2.1-4.5-3.7-7.2-4.8C498.5,86.6,495.6,86,492.5,86z"/>
		<path id="XMLID_261_" class="st0" d="M569.3,74.6c4.6,0,9,0.9,13.1,2.6c4.1,1.8,7.7,4.2,10.7,7.2c3.1,3,5.5,6.6,7.2,10.7
			c1.8,4.1,2.6,8.5,2.6,13.2c0,4.6-0.9,9-2.6,13.1c-1.8,4.1-4.2,7.6-7.2,10.7c-3.1,3-6.6,5.4-10.7,7.2c-4.1,1.8-8.5,2.6-13.1,2.6
			c-4.6,0-9-0.9-13-2.6c-4-1.8-7.6-4.2-10.7-7.2c-3.1-3-5.5-6.6-7.2-10.7c-1.8-4.1-2.6-8.5-2.6-13.1c0-4.6,0.9-9,2.6-13.2
			c1.8-4.1,4.2-7.7,7.2-10.7c3.1-3,6.6-5.4,10.7-7.2C560.3,75.5,564.7,74.6,569.3,74.6z M569.3,85.8c-3.1,0-6,0.6-8.8,1.7
			c-2.8,1.2-5.2,2.8-7.2,4.8c-2.1,2.1-3.7,4.5-4.8,7.2c-1.2,2.8-1.7,5.7-1.7,8.8s0.6,6,1.7,8.8c1.2,2.8,2.8,5.1,4.8,7.2
			c2.1,2,4.5,3.6,7.2,4.8c2.8,1.2,5.7,1.8,8.8,1.8c3.1,0,6-0.6,8.8-1.8c2.8-1.2,5.2-2.8,7.2-4.8c2.1-2,3.7-4.4,4.8-7.2
			c1.2-2.8,1.7-5.7,1.7-8.8s-0.6-6-1.7-8.8c-1.2-2.8-2.8-5.2-4.8-7.2c-2.1-2.1-4.5-3.7-7.2-4.8C575.4,86.3,572.4,85.8,569.3,85.8z"
			/>
		<path id="XMLID_242_" class="st0" d="M614.5,46.1h11v77.7c0,2,0.9,3.7,2.8,5c1.9,1.4,4.1,2.1,6.7,2.1v11c-2.8,0-5.5-0.5-7.9-1.4
			c-2.5-0.9-4.6-2.2-6.5-3.9c-1.9-1.6-3.3-3.6-4.4-5.7c-1.1-2.2-1.6-4.5-1.6-7V46.1z"/>
		<path id="XMLID_154_" class="st0" d="M671.6,142.2c-4.6,0-9-0.9-13.1-2.6c-4.1-1.8-7.7-4.2-10.7-7.2c-3.1-3.1-5.5-6.6-7.2-10.7
			c-1.8-4-2.6-8.4-2.6-13c0-4.6,0.9-9,2.6-13.2c1.8-4.1,4.2-7.7,7.2-10.7c3.1-3,6.6-5.4,10.7-7.2c4.1-1.8,8.5-2.6,13.1-2.6
			c4.6,0,9,0.9,13.1,2.6c4.1,1.8,7.6,4.2,10.7,7.2c3,3,5.4,6.6,7.2,10.7c1.8,4.1,2.6,8.5,2.6,13.2c0,0.6,0,1.2,0,1.9
			c0,0.7-0.1,1.9-0.3,3.5h-55.1c0.6,2.5,1.6,4.8,3,6.8c1.4,2.1,3,3.9,4.9,5.4c1.9,1.5,4,2.8,6.4,3.6c2.4,0.9,4.9,1.3,7.6,1.3
			c2.1,0,4.1-0.5,6.2-1.6c2.1-1.1,4-2.5,5.9-4.3l7.7,7.7c-2.8,2.8-6,5-9.4,6.7C678.7,141.3,675.2,142.2,671.6,142.2z M693.4,103.1
			c-0.7-2.4-1.7-4.7-3-6.8c-1.3-2.1-2.9-3.9-4.8-5.4c-1.9-1.5-4-2.7-6.4-3.6c-2.4-0.9-4.9-1.3-7.6-1.3c-2.7,0-5.2,0.4-7.6,1.3
			c-2.4,0.9-4.5,2-6.4,3.6c-1.9,1.5-3.5,3.3-4.9,5.4c-1.4,2.1-2.4,4.4-3,6.8H693.4z"/>
		<path id="XMLID_127_" class="st0" d="M745.1,46.4h58.4v11.4h-47.1v30.1h41.2v11.4h-41.2v41.5h-11.2V46.4z"/>
		<path id="XMLID_116_" class="st0" d="M813.9,46.1H825v15h-11.1V46.1z M813.9,76.1H825v64.6h-11.1V76.1z"/>
		<path id="XMLID_114_" class="st0" d="M869.6,74.6c4.6,0,9,0.9,13.1,2.6c4.1,1.8,7.7,4.2,10.7,7.2c3.1,3,5.5,6.6,7.2,10.7
			c1.8,4.1,2.6,8.5,2.6,13.2v32.3h-11.1v-32.3c0-3.1-0.6-6-1.7-8.8c-1.2-2.8-2.8-5.2-4.8-7.2c-2-2.1-4.4-3.7-7.2-4.8
			c-2.8-1.2-5.7-1.7-8.9-1.7c-3.1,0-6,0.6-8.8,1.7c-2.8,1.2-5.1,2.8-7.2,4.8c-2,2.1-3.6,4.5-4.8,7.2c-1.2,2.8-1.8,5.7-1.8,8.8v32.3
			h-11v-32.3c0-4.6,0.9-9,2.6-13.2c1.8-4.1,4.2-7.7,7.2-10.7c3.1-3,6.6-5.4,10.7-7.2C860.6,75.5,864.9,74.6,869.6,74.6z"/>
		<path id="XMLID_104_" class="st0" d="M947.9,74.5c4.6,0,9,0.9,13.2,2.6c4.1,1.8,7.7,4.2,10.8,7.2c3.1,3.1,5.5,6.6,7.2,10.7
			c1.8,4.1,2.6,8.5,2.6,13.1v32.3h-11.2v-7.2c-3,2.7-6.4,4.8-10.3,6.3c-3.8,1.5-7.9,2.3-12.3,2.3c-4.6,0-9-0.9-13-2.6
			c-4-1.8-7.6-4.2-10.7-7.2c-3.1-3-5.5-6.6-7.2-10.7c-1.8-4.1-2.6-8.5-2.6-13.1c0-4.6,0.9-9,2.6-13.1c1.8-4.1,4.2-7.7,7.2-10.7
			c3.1-3.1,6.6-5.5,10.7-7.2C938.9,75.4,943.3,74.5,947.9,74.5z M947.9,85.6c-3.1,0-6,0.6-8.8,1.7c-2.8,1.2-5.1,2.8-7.2,4.8
			c-2,2.1-3.6,4.5-4.8,7.2c-1.2,2.8-1.8,5.7-1.8,8.8c0,3.1,0.6,6,1.8,8.8c1.2,2.8,2.8,5.1,4.8,7.2c2,2,4.4,3.6,7.2,4.8
			c2.8,1.2,5.7,1.8,8.8,1.8c3.2,0,6.2-0.6,8.9-1.8c2.8-1.2,5.1-2.8,7.2-4.8c2-2,3.6-4.4,4.8-7.2c1.2-2.8,1.7-5.7,1.7-8.8
			c0-3.1-0.6-6-1.7-8.8c-1.2-2.8-2.8-5.2-4.8-7.2c-2-2.1-4.4-3.7-7.2-4.8C954.1,86.2,951.1,85.6,947.9,85.6z"/>
		<path id="XMLID_102_" class="st0" d="M1028.1,74.6c4.6,0,9,0.9,13.1,2.6c4.1,1.8,7.7,4.2,10.7,7.2c3.1,3,5.5,6.6,7.2,10.7
			c1.8,4.1,2.6,8.5,2.6,13.2v32.3h-11.1v-32.3c0-3.1-0.6-6-1.7-8.8c-1.2-2.8-2.8-5.2-4.8-7.2c-2-2.1-4.4-3.7-7.2-4.8
			c-2.8-1.2-5.7-1.7-8.9-1.7c-3.1,0-6,0.6-8.8,1.7c-2.8,1.2-5.1,2.8-7.2,4.8c-2,2.1-3.6,4.5-4.8,7.2c-1.2,2.8-1.8,5.7-1.8,8.8v32.3
			h-11v-32.3c0-4.6,0.9-9,2.6-13.2c1.8-4.1,4.2-7.7,7.2-10.7c3.1-3,6.6-5.4,10.7-7.2C1019.1,75.5,1023.5,74.6,1028.1,74.6z"/>
		<path id="XMLID_100_" class="st0" d="M1107.3,141.5c-4.6,0-9-0.9-13-2.6c-4-1.8-7.6-4.2-10.7-7.2c-3.1-3-5.5-6.6-7.2-10.7
			c-1.8-4.1-2.6-8.5-2.6-13.1c0-4.6,0.9-9,2.6-13.1c1.8-4.1,4.2-7.7,7.2-10.7c3.1-3.1,6.6-5.5,10.7-7.2c4-1.8,8.4-2.6,13-2.6
			c3.6,0,7.1,0.8,10.6,2.5c3.4,1.7,6.6,3.9,9.4,6.8l-7.7,7.7c-1.9-1.8-3.9-3.2-5.9-4.3c-2.1-1.1-4.2-1.6-6.3-1.6
			c-3.1,0-6,0.6-8.8,1.7c-2.8,1.2-5.1,2.8-7.2,4.8c-2,2.1-3.6,4.5-4.8,7.2c-1.2,2.8-1.8,5.7-1.8,8.8c0,3.1,0.6,6,1.8,8.8
			c1.2,2.8,2.8,5.1,4.8,7.2c2,2,4.4,3.6,7.2,4.8c2.8,1.2,5.7,1.8,8.8,1.8c2.2,0,4.3-0.5,6.3-1.5c2.1-1,4-2.5,5.9-4.4l7.7,7.7
			c-2.8,2.8-6,5.1-9.4,6.7C1114.4,140.7,1110.9,141.5,1107.3,141.5z"/>
		<path id="XMLID_78_" class="st0" d="M1166.4,142.2c-4.6,0-9-0.9-13.1-2.6c-4.1-1.8-7.7-4.2-10.7-7.2c-3.1-3.1-5.5-6.6-7.2-10.7
			c-1.8-4-2.6-8.4-2.6-13c0-4.6,0.9-9,2.6-13.2c1.8-4.1,4.2-7.7,7.2-10.7c3.1-3,6.6-5.4,10.7-7.2c4.1-1.8,8.5-2.6,13.1-2.6
			c4.6,0,9,0.9,13.1,2.6c4.1,1.8,7.6,4.2,10.7,7.2c3,3,5.4,6.6,7.2,10.7c1.8,4.1,2.6,8.5,2.6,13.2c0,0.6,0,1.2,0,1.9
			c0,0.7-0.1,1.9-0.3,3.5h-55.1c0.6,2.5,1.6,4.8,3,6.8c1.4,2.1,3,3.9,4.9,5.4c1.9,1.5,4,2.8,6.4,3.6c2.4,0.9,4.9,1.3,7.6,1.3
			c2.1,0,4.1-0.5,6.2-1.6c2.1-1.1,4-2.5,5.9-4.3l7.7,7.7c-2.8,2.8-6,5-9.4,6.7C1173.5,141.3,1170,142.2,1166.4,142.2z M1188.2,103.1
			c-0.7-2.4-1.7-4.7-3-6.8c-1.3-2.1-2.9-3.9-4.8-5.4c-1.9-1.5-4-2.7-6.4-3.6c-2.4-0.9-4.9-1.3-7.6-1.3c-2.7,0-5.2,0.4-7.6,1.3
			c-2.4,0.9-4.5,2-6.4,3.6c-1.9,1.5-3.5,3.3-4.9,5.4c-1.4,2.1-2.4,4.4-3,6.8H1188.2z"/>
	</g>
	<g id="XMLID_4_">
		<path id="XMLID_74_" class="st1" d="M130.4,0.3c-3,0-6,0.2-9,0.5l0,0c0,0-59.4,1.8-99.2,62.3c0,0-25.2,34.4-21.9,76.7
			c0.2,2,2.7,2.8,3.9,1.1c7.6-10.2,27-33.8,43.2-36.1c8.8,37.7,42.6,65.9,83,65.9c47.1,0,85.2-38.2,85.2-85.2S177.5,0.3,130.4,0.3z"
			/>
		<g id="XMLID_8_">
			<g id="XMLID_53_">
				<circle id="XMLID_72_" class="st2" cx="130.5" cy="85.5" r="53.2"/>
				<path id="XMLID_55_" class="st3" d="M145.4,46.1c21.7,8.2,32.7,32.6,24.5,54.3s-32.6,32.7-54.3,24.5
					c-21.7-8.2-32.7-32.6-24.5-54.3S123.7,37.9,145.4,46.1 M149.4,35.7c-27.5-10.4-58.2,3.4-68.6,30.9s3.4,58.2,30.9,68.6
					c27.5,10.4,58.2-3.4,68.6-30.9C190.7,76.9,176.9,46.1,149.4,35.7L149.4,35.7z"/>
			</g>
			<g id="XMLID_46_">
				<circle id="XMLID_20_" class="st4" cx="130.5" cy="85.5" r="38.5"/>
			</g>
			<g id="XMLID_15_">
				<circle id="XMLID_19_" class="st2" cx="119.7" cy="66.7" r="19.7"/>
			</g>
		</g>
	</g>
</g>
</svg>
